<svg xmlns="http://www.w3.org/2000/svg" width="250" viewBox="0 0 438 90" class="iconLeftSlogan">
  <g id="8911ad3f-5135-43e2-b3fe-564e0957b437" fill="#012B3D"
     transform="matrix(5.7915059834320255,0,0,5.7915059834320255,105.54053423882047,10)">
    <path
      d="M4.00 10.36C6.12 10.36 7.24 8.92 7.24 7.56C7.24 6.16 6.17 5.33 4.65 4.96L3.35 4.65C1.90 4.31 1.76 3.54 1.76 3.09C1.76 2.02 2.79 1.33 3.88 1.33C5.04 1.33 5.92 2.02 5.98 3.08L6.90 3.08C6.85 1.47 5.54 0.46 3.91 0.46C2.31 0.46 0.84 1.50 0.84 3.09C0.84 3.86 1.13 5.03 3.12 5.50L4.42 5.81C5.38 6.05 6.31 6.55 6.31 7.60C6.31 8.51 5.54 9.49 4.00 9.49C2.65 9.49 1.78 8.58 1.68 7.63L0.77 7.63C0.84 9.03 2.11 10.36 4.00 10.36ZM13.87 3.68L13.87 7.31C13.86 8.89 12.74 9.48 11.70 9.48C10.64 9.48 9.86 8.71 9.86 7.45L9.86 3.68L8.96 3.68L8.96 7.49C8.95 9.30 10.02 10.36 11.61 10.36C12.42 10.36 13.48 10.00 13.87 9.07L13.87 10.22L14.77 10.22L14.77 3.68ZM25.17 10.36C27.79 10.36 29.64 8.81 29.68 5.54L25.77 5.54L25.77 6.37L28.67 6.37L28.66 6.58C28.41 8.46 26.99 9.49 25.17 9.49C22.95 9.49 21.22 7.66 21.22 5.42C21.22 3.18 22.95 1.33 25.17 1.33C26.10 1.33 26.96 1.68 27.62 2.21L28.24 1.58C27.43 0.90 26.35 0.46 25.17 0.46C22.43 0.46 20.30 2.67 20.30 5.42C20.30 8.15 22.43 10.36 25.17 10.36ZM31.26 10.22L32.16 10.22L32.16 0L31.26 0ZM37.37 10.36C39.23 10.36 40.80 9.00 40.80 6.93C40.80 4.86 39.23 3.54 37.37 3.54C35.50 3.54 33.95 4.86 33.95 6.93C33.95 9.00 35.50 10.36 37.37 10.36ZM37.37 9.51C35.98 9.51 34.85 8.48 34.85 6.93C34.85 5.39 35.98 4.40 37.37 4.40C38.74 4.40 39.90 5.39 39.90 6.93C39.90 8.48 38.74 9.51 37.37 9.51ZM45.53 3.54C44.51 3.54 43.81 4.17 43.48 5.28L43.48 3.68L42.57 3.68L42.57 10.22L43.48 10.22L43.48 7.76C43.48 6.15 43.96 4.41 45.51 4.41C45.75 4.41 46.06 4.45 46.40 4.59L46.56 3.74C46.31 3.61 45.89 3.54 45.53 3.54ZM48.26 1.90C48.65 1.90 48.96 1.64 48.96 1.27C48.96 0.90 48.65 0.63 48.26 0.63C47.89 0.63 47.57 0.90 47.57 1.27C47.57 1.64 47.89 1.90 48.26 1.90ZM47.81 10.22L48.71 10.22L48.71 3.68L47.81 3.68ZM56.42 3.68L56.42 4.94C55.93 4.06 54.92 3.54 53.82 3.54C51.98 3.54 50.50 4.96 50.50 6.94C50.50 8.93 52.00 10.36 53.82 10.36C54.91 10.36 55.93 9.84 56.42 8.95L56.42 10.22L57.32 10.22L57.32 3.68ZM53.89 9.51C52.51 9.51 51.39 8.39 51.39 6.93C51.39 5.49 52.51 4.40 53.89 4.40C55.19 4.40 56.42 5.39 56.42 6.97C56.42 8.48 55.24 9.51 53.89 9.51Z">
    </path>
  </g>
  <defs >
    <linearGradient
      gradientTransform="rotate(25)"
      id="cb4f4326-93b1-43ba-920f-69049cc38446"
      x1="0%"
      y1="0%"
      x2="100%"
      y2="0%">
      <stop
        offset="0%"
        style="stop-color: rgb(0, 118, 221); stop-opacity: 1;">
      </stop>
      <stop offset="100%"
            style="stop-color: rgb(0, 205, 233); stop-opacity: 1;">
      </stop>
    </linearGradient>
  </defs>
  <g
    id="418c6746-b5e1-41b5-9416-aaa865c87b41"
    transform="matrix(1.0227272727272727,0,0,1.0227272727272727,-6.136363636363633,-6.136363636363633)"
    stroke="none" fill="url(#cb4f4326-93b1-43ba-920f-69049cc38446)">
    <path
      d="M84.32 14h-6.76l-5 7L78 36.37V37h-4.83L68 42.17v10l-8.32 8.32-1.42 4.35L60 76v18h20V76.83l14-14V37.59zM90 61.17l-14 14V90H64V75.88l-1.64-10.7.83-2.53L72 53.83v-10L74.83 41H78v14.17l-5.41 5.41 2.83 2.83L82 56.83v-21.2l-4.93-14L79.63 18h2.05L90 38.41zM32 52.17v-10L26.83 37H22v-.63L27.42 21l-5-7h-6.74L6 37.59v25.24l14 14V94h20V76l1.74-11.19-1.42-4.35zm4 23.7V90H24V75.17l-14-14V38.41L18.32 18h2.05l2.56 3.62L18 35.63v21.2l6.59 6.59 2.83-2.83L22 55.17V41h3.17L28 43.83v10l8.81 8.81.83 2.53z">
    </path>
    <path
      d="M30.13 33.3l3.74 1.4L44.64 6h-4.28L30.13 33.3zM69.87 33.3L59.64 6h-4.28l10.77 28.7 3.74-1.4zM48 6h4v50h-4z">
    </path>
  </g>
</svg>
